<svg id="Group_77" data-name="Group 77" xmlns="http://www.w3.org/2000/svg" xmlns:xlink="http://www.w3.org/1999/xlink" width="160.048" height="34.063" viewBox="0 0 160.048 34.063">
  <defs>
    <clipPath id="clip-path">
      <rect id="Rectangle_210" data-name="Rectangle 210" width="160.048" height="34.063" fill="#b7e2ba"/>
    </clipPath>
  </defs>
  <path id="Path_38" data-name="Path 38" d="M0,0H6.737V6.737H0Z" transform="matrix(0.44, -0.898, 0.898, 0.44, 8.767, 29.569)" fill="#299d7a"/>
  <g id="Group_59" data-name="Group 59">
    <g id="Group_58" data-name="Group 58" clip-path="url(#clip-path)">
      <path id="Path_26" data-name="Path 26" d="M77.34,69.717a8.652,8.652,0,0,0-2.291-2.639,13.644,13.644,0,0,0-2.737-1.629,21.625,21.625,0,0,0-2.3-.88q-.7-.2-1.77-.543a14.573,14.573,0,0,1-1.682-.664l-7.269,2.894a9.857,9.857,0,0,0,1.5,1.137,19.294,19.294,0,0,0,4.051,1.89q.89.282,1.976.641a15.574,15.574,0,0,1,2.085.858,5.381,5.381,0,0,1,1.651,1.238A2.6,2.6,0,0,1,71.2,73.8a2.806,2.806,0,0,1-.532,1.662,3.627,3.627,0,0,1-1.412,1.173,3.13,3.13,0,0,1-1.9.423l-1.741-.412-3.059,6.119a10.882,10.882,0,0,0,4.8.788,11.656,11.656,0,0,0,5.625-1.336,10.214,10.214,0,0,0,3.888-3.584,9.183,9.183,0,0,0,1.412-4.985,7.933,7.933,0,0,0-.945-3.931" transform="translate(-46.308 -49.489)" fill="#0a2b57"/>
      <path id="Path_27" data-name="Path 27" d="M26.765,11.966l1.7,6.3,2.926-.788a7.171,7.171,0,0,0,.925,2.244c.108.169.221.332.338.492l6.673-2.657q-.2-.181-.387-.377a2.6,2.6,0,0,1-.717-1.835,2.423,2.423,0,0,1,1.021-2.085,3.8,3.8,0,0,1,2.281-.738,3.7,3.7,0,0,1,1.9.489A4.89,4.89,0,0,1,44.8,14.184a5.462,5.462,0,0,1,.618.947L52,12.512A11.068,11.068,0,0,0,49.9,9.46,10.591,10.591,0,0,0,46.345,7.07a12.412,12.412,0,0,0-4.865-.89A12.121,12.121,0,0,0,36.06,7.32a8.833,8.833,0,0,0-3.569,3.1Z" transform="translate(-20.905 -4.827)" fill="#299d7a"/>
      <rect id="Rectangle_206" data-name="Rectangle 206" width="3.848" height="3.848" transform="matrix(0.966, -0.26, 0.26, 0.966, 4.611, 1.612)" fill="#b7e2ba"/>
      <rect id="Rectangle_207" data-name="Rectangle 207" width="3.848" height="3.848" transform="matrix(0.966, -0.26, 0.26, 0.966, 0, 6.294)" fill="#b7e2ba"/>
      <rect id="Rectangle_208" data-name="Rectangle 208" width="3.848" height="3.848" transform="translate(4.067 27.093) rotate(-63.912)" fill="#b7e2ba"/>
      <path id="Path_28" data-name="Path 28" d="M161.751,48.366h5.187a.1.1,0,0,1,.1.1v21.94a.1.1,0,0,1-.1.1h-5.205a.1.1,0,0,1-.1-.095l-.209-2.353a.1.1,0,0,0-.189-.046,7.184,7.184,0,0,1-2.241,2.15,6.613,6.613,0,0,1-3.533.919,11.47,11.47,0,0,1-4.607-.93,12.044,12.044,0,0,1-6.323-6.357,11.585,11.585,0,0,1-.919-4.607,11.352,11.352,0,0,1,3.322-8.106,11.532,11.532,0,0,1,3.632-2.459,11.093,11.093,0,0,1,4.43-.886,7.9,7.9,0,0,1,3.931.975,10.16,10.16,0,0,1,2.748,2.231.1.1,0,0,0,.181-.074l-.206-2.4a.1.1,0,0,1,.1-.113m-6.426,17.519a5.483,5.483,0,0,0,3.057-.864,5.968,5.968,0,0,0,2.082-2.337,7.412,7.412,0,0,0,0-6.512,5.941,5.941,0,0,0-2.093-2.337,5.5,5.5,0,0,0-3.046-.864,5.775,5.775,0,0,0-3.112.875,6.577,6.577,0,0,0,.022,11.174,5.79,5.79,0,0,0,3.09.864" transform="translate(-112.167 -37.292)" fill="#0a2b57"/>
      <path id="Path_29" data-name="Path 29" d="M265.175,33.118V.1a.1.1,0,0,1,.1-.1h5.2a.1.1,0,0,1,.1.1V33.118a.1.1,0,0,1-.1.1h-5.2a.1.1,0,0,1-.1-.1" transform="translate(-207.116)" fill="#0a2b57"/>
      <path id="Path_30" data-name="Path 30" d="M302.438,31.175h-4.089a.1.1,0,0,0-.1.1V47.815a.1.1,0,0,1-.1.1h-5.2a.1.1,0,0,1-.1-.1V31.279a.1.1,0,0,0-.1-.1h-3.07a.1.1,0,0,1-.1-.1v-5.2a.1.1,0,0,1,.1-.1h3.07a.1.1,0,0,0,.1-.1V18.92a.1.1,0,0,1,.1-.1h5.2a.1.1,0,0,1,.1.1v6.747a.1.1,0,0,0,.1.1h4.089a.1.1,0,0,1,.1.1v5.2a.1.1,0,0,1-.1.1" transform="translate(-226.165 -14.696)" fill="#0a2b57"/>
      <path id="Union_11" data-name="Union 11" d="M29.563,31.229a11.994,11.994,0,0,1-3.776-2.567q-.246-.247-.474-.506a16.067,16.067,0,0,1-3.14,2.253,14.1,14.1,0,0,1-6.933,1.75,14.2,14.2,0,0,1-5.914-1.25,15.277,15.277,0,0,1-4.862-3.465A16.391,16.391,0,0,1,0,16.079,16.467,16.467,0,0,1,1.183,9.824,16.267,16.267,0,0,1,4.464,4.705,15.384,15.384,0,0,1,9.325,1.254,14.151,14.151,0,0,1,15.24,0a14.184,14.184,0,0,1,6.933,1.74,15.646,15.646,0,0,1,5.176,4.54.1.1,0,0,1-.034.156L22.665,8.931a.1.1,0,0,1-.127-.027A9.57,9.57,0,0,0,20.3,6.919a9.448,9.448,0,0,0-5.524-1.505,8.957,8.957,0,0,0-3.365.822,9.781,9.781,0,0,0-3.144,2.3,10.726,10.726,0,0,0-2.106,3.41,11.355,11.355,0,0,0-.751,4.129,11.155,11.155,0,0,0,.764,4.143,10.9,10.9,0,0,0,2.116,3.4,9.832,9.832,0,0,0,3.134,2.3,9.168,9.168,0,0,0,7.95-.156,9.942,9.942,0,0,0,3.169-2.536.1.1,0,0,1,.127-.026l.015.009a11.951,11.951,0,0,1-.359-2.951,11.362,11.362,0,0,1,3.322-8.106A11.49,11.49,0,0,1,29.277,9.7a11.069,11.069,0,0,1,4.429-.888,7.866,7.866,0,0,1,3.929.978,10.062,10.062,0,0,1,2.748,2.23.1.1,0,0,0,.181-.077l-.206-2.4a.109.109,0,0,1,.1-.116h5.186a.106.106,0,0,1,.1.106V27.249a.114.114,0,0,1,.055-.05l4.381-1.871a.1.1,0,0,1,.123.038,4.106,4.106,0,0,0,.818.868,5.205,5.205,0,0,0,1.428.831,4.867,4.867,0,0,0,1.829.334,5.591,5.591,0,0,0,1.6-.231,2.918,2.918,0,0,0,1.241-.72,1.736,1.736,0,0,0,.477-1.263,1.536,1.536,0,0,0-.567-1.273,3.815,3.815,0,0,0-1.416-.687q-.853-.233-1.651-.433a15.9,15.9,0,0,1-3.91-1.307,8.172,8.172,0,0,1-2.9-2.291,5.372,5.372,0,0,1-1.095-3.4,6.261,6.261,0,0,1,1.162-3.786,7.628,7.628,0,0,1,3.035-2.459,9.511,9.511,0,0,1,4.039-.864A10.713,10.713,0,0,1,59.25,9.78a8.645,8.645,0,0,1,3.217,2.695V9.541a.106.106,0,0,1,.1-.106h3.07a.106.106,0,0,0,.1-.1V2.586a.1.1,0,0,1,.1-.1h5.195a.1.1,0,0,1,.105.1V9.332a.106.106,0,0,0,.105.1h4.088a.106.106,0,0,1,.1.106v5.2a.106.106,0,0,1-.1.1H71.254a.1.1,0,0,0-.105.1V31.481a.1.1,0,0,1-.105.1H65.849a.1.1,0,0,1-.1-.1V14.944a.1.1,0,0,0-.1-.1h-3.07a.106.106,0,0,1-.1-.1V13.03L58.55,15.344a.105.105,0,0,1-.14-.034,3.669,3.669,0,0,0-.811-.9,5.169,5.169,0,0,0-1.263-.755,4.579,4.579,0,0,0-1.482-.343,6.021,6.021,0,0,0-1.817.178,2.7,2.7,0,0,0-1.317.754,1.977,1.977,0,0,0-.5,1.415,1.365,1.365,0,0,0,.665,1.251,5.247,5.247,0,0,0,1.607.632q.941.22,1.8.488A22.738,22.738,0,0,1,58.96,19.6a8.589,8.589,0,0,1,2.759,2.281,4.958,4.958,0,0,1,1,3.236,5.817,5.817,0,0,1-1.285,3.753,8.159,8.159,0,0,1-3.309,2.447,9.267,9.267,0,0,1-4.33.666,11.834,11.834,0,0,1-3.334-.7,9.637,9.637,0,0,1-2.848-1.607,6.935,6.935,0,0,1-1.855-2.337v4.139a.106.106,0,0,1-.1.1h-5.2a.1.1,0,0,1-.1-.1l-.21-2.351a.1.1,0,0,0-.187-.048A7.205,7.205,0,0,1,37.7,31.242a6.619,6.619,0,0,1-3.532.92A11.466,11.466,0,0,1,29.563,31.229Zm1.361-16.312a6.576,6.576,0,0,0,.023,11.174,5.79,5.79,0,0,0,3.089.865,5.487,5.487,0,0,0,3.057-.865,5.954,5.954,0,0,0,2.081-2.335,7.408,7.408,0,0,0,0-6.513,5.918,5.918,0,0,0-2.09-2.335,5.5,5.5,0,0,0-3.048-.865A5.8,5.8,0,0,0,30.924,14.917Z" transform="translate(79.912 1.638)" fill="#299d7a" stroke="rgba(0,0,0,0)" stroke-width="1"/>
      <rect id="Rectangle_209" data-name="Rectangle 209" width="6.052" height="6.052" transform="translate(153.996 27.048)" fill="#0a2b57"/>
    </g>
  </g>
</svg>
