<svg xmlns="http://www.w3.org/2000/svg" xmlns:xlink="http://www.w3.org/1999/xlink" width="360" height="360" viewBox="0 0 360 360">
  <defs>
    <linearGradient id="linear-gradient" x1="0.5" x2="0.5" y2="1" gradientUnits="objectBoundingBox">
      <stop offset="0" stop-color="#50bab6"/>
      <stop offset="0.532" stop-color="#398491"/>
      <stop offset="1" stop-color="#142a54"/>
    </linearGradient>
  </defs>
  <g id="Group_162" data-name="Group 162" transform="translate(-903 -135)">
    <circle id="Ellipse_57" data-name="Ellipse 57" cx="180" cy="180" r="180" transform="translate(903 135)" fill="#fff" opacity="0.272"/>
    <circle id="Ellipse_56" data-name="Ellipse 56" cx="155" cy="155" r="155" transform="translate(928 470) rotate(-90)" fill="url(#linear-gradient)"/>
    <circle id="Ellipse_55" data-name="Ellipse 55" cx="130" cy="130" r="130" transform="translate(953 185)" fill="#fff"/>
    <g id="Group_143" data-name="Group 143" transform="translate(53.398 -156.609)">
      <path id="Path_38" data-name="Path 38" d="M0,24.259,11.879,0,36.137,11.879,24.259,36.137Z" transform="translate(983.474 496.313)" fill="#299d7a"/>
      <path id="Path_26" data-name="Path 26" d="M72.369,25.476q-.926-1.611-1.963-3.078t-2.185-2.789a33.411,33.411,0,0,0-2.408-2.5A32.388,32.388,0,0,0,63.182,14.9q-1.371-1.034-2.743-1.959T57.7,11.2q-1.371-.816-2.743-1.524T52.211,8.366q-1.372-.6-2.634-1.119T47.16,6.287q-1.154-.441-2.2-.8t-1.981-.645q-.7-.2-1.489-.43T39.813,3.9q-.887-.272-1.869-.582t-2.06-.658q-.85-.274-1.7-.578T32.5,1.447q-.843-.333-1.682-.7T29.142,0L0,11.6q.686.63,1.4,1.231T2.873,14q.751.57,1.537,1.11t1.608,1.046q1.9,1.176,3.872,2.237t4,2.008q2.03.947,4.123,1.78t4.248,1.551q.892.283,1.834.585t1.932.623q.99.321,2.03.661l2.128.7q1.089.359,2.155.754t2.111.825q1.045.43,2.068.9t2.024.966q1,.5,1.916,1.062T42.2,31.986q.827.62,1.567,1.3a19.037,19.037,0,0,1,1.393,1.42A10.578,10.578,0,0,1,46.3,36.262a9.978,9.978,0,0,1,.816,1.709,10.468,10.468,0,0,1,.49,1.861,12.1,12.1,0,0,1,.163,2.014,11.821,11.821,0,0,1-.133,1.787,11.04,11.04,0,0,1-1.067,3.331,12.054,12.054,0,0,1-.933,1.543,14.08,14.08,0,0,1-2.482,2.677,14.735,14.735,0,0,1-1.5,1.094,16.158,16.158,0,0,1-1.676.931c-.588.283-1.19.561-1.8.812a16.156,16.156,0,0,1-1.88.647,10.3,10.3,0,0,1-1.942.342,7.816,7.816,0,0,1-1.992-.1l-6.982-1.654L13.111,77.784a37.24,37.24,0,0,0,4.741,1.693,35.012,35.012,0,0,0,4.566.952c1.53.217,3.086.345,4.724.419s3.358.094,5.216.094a55.181,55.181,0,0,0,6.144-.335,48.464,48.464,0,0,0,5.807-1,44.308,44.308,0,0,0,5.469-1.673,42.511,42.511,0,0,0,5.132-2.343,45.6,45.6,0,0,0,4.7-2.906,41.508,41.508,0,0,0,4.163-3.363,39.625,39.625,0,0,0,6.727-8.1,37.308,37.308,0,0,0,2.476-4.629,35.951,35.951,0,0,0,1.769-4.874A36.848,36.848,0,0,0,75.8,46.6a40.057,40.057,0,0,0,.354-5.363,42.626,42.626,0,0,0-.269-4.478,34.523,34.523,0,0,0-.721-4.119,28.864,28.864,0,0,0-1.173-3.76,25.32,25.32,0,0,0-1.625-3.4" transform="translate(1000.347 457.698)" fill="#0a2b57"/>
      <path id="Path_27" data-name="Path 27" d="M0,23.2l6.805,25.26L18.535,45.3q.292,1.244.668,2.429t.839,2.31q.463,1.125,1.013,2.189t1.191,2.066q.162.253.328.5t.335.5q.17.246.342.489t.349.484L50.354,45.613q-.2-.181-.4-.366t-.393-.374q-.194-.189-.382-.381T48.8,44.1a11.239,11.239,0,0,1-1.257-1.618,10.168,10.168,0,0,1-.9-1.766,10.271,10.271,0,0,1-.539-1.913,11.561,11.561,0,0,1-.18-2.06,12.176,12.176,0,0,1,.256-2.547,9.674,9.674,0,0,1,.767-2.242,9.1,9.1,0,0,1,1.279-1.937,10.338,10.338,0,0,1,1.79-1.633,16.224,16.224,0,0,1,2.106-1.295,14.949,14.949,0,0,1,4.571-1.48,16.182,16.182,0,0,1,2.465-.185,17.235,17.235,0,0,1,2.076.122,15.237,15.237,0,0,1,1.962.367,14.136,14.136,0,0,1,1.848.612,13.868,13.868,0,0,1,1.734.857q.837.49,1.6,1.028t1.456,1.126q.691.588,1.31,1.224t1.163,1.322q.4.5.751.989t.662.962q.309.475.575.936t.489.91l26.371-10.5q-.771-1.669-1.682-3.269t-1.965-3.13q-1.053-1.53-2.249-2.99t-2.535-2.849A39.089,39.089,0,0,0,89.669,10.3,40.712,40.712,0,0,0,86.277,7.75q-1.779-1.2-3.724-2.242T78.5,3.57a40.956,40.956,0,0,0-4.386-1.562A46.077,46.077,0,0,0,69.4.893Q66.958.446,64.357.223T58.991,0q-3.113,0-6.027.286a51.944,51.944,0,0,0-5.63.857A44.9,44.9,0,0,0,42.1,2.571a40.324,40.324,0,0,0-4.836,2,39.841,39.841,0,0,0-4.311,2.463,35.968,35.968,0,0,0-3.821,2.9,34.125,34.125,0,0,0-6.177,7.082Z" transform="translate(971.827 407.549)" fill="#299d7a"/>
      <path id="Rectangle_206" data-name="Rectangle 206" d="M0,4.013,14.9,0l4.013,14.9-14.9,4.013Z" transform="translate(966.821 404.574)" fill="#b7e2ba"/>
      <path id="Rectangle_207" data-name="Rectangle 207" d="M0,4.013,14.9,0l4.013,14.9-14.9,4.013Z" transform="translate(948.352 423.325)" fill="#b7e2ba"/>
      <path id="Rectangle_208" data-name="Rectangle 208" d="M0,13.855,6.784,0,20.64,6.784,13.855,20.64Z" transform="translate(964.642 496.799)" fill="#b7e2ba"/>
    </g>
  </g>
</svg>
